<?xml version="1.0" encoding="UTF-8"?>
<svg version="1.1" viewBox="0 0 2048 1653" width="1280" height="1280" xmlns="http://www.w3.org/2000/svg">
<path transform="translate(295,334)" d="m0 0h513l7 4 9 11 26 36 13 17 10 14 14 19 13 18 15 20 2 3h2l9-11 7-7 7-8 8-8 8-7 11-10 17-13 24-16 17-10 21-11 21-9 30-11 37-10 25-5 29-4 25-2h458l4 2 3 5v6l-9 13-10 13-26 34-10 13-14 18-26 34-10 13-13 17-20 26-26 34-14 18-13 17-10 13-14 18-10 14-3 3 10 4 24 10 26 13 18 11 16 11 13 10 13 11 16 15 7 7 9 11 8 9 13 18 13 21 12 23 8 19 10 30 7 31 4 28 1 12v48l-2 22-5 27-6 26-8 24-10 24-8 16-10 18-15 22-11 14-12 14-26 26-11 9-8 7-17 12-17 11-14 8-25 13-19 8-27 10-28 8-22 5-30 5-38 4-16 1h-894l-5-4-2-3v-8l10-14 14-18 12-16 10-13 14-18 10-13 13-17 40-52 12-16 11-14 16-21 14-18 13-17 10-13 13-17 14-18 9-12 14-18 9-12 10-13 14-18 12-16 11-14-1-4-12-16-13-18-14-19-12-16-14-19-13-18-12-16-13-18-10-13-13-18-56-76-13-18-28-38-12-16-13-18-98-133-13-18-12-16-28-38-9-14-1-5 4-8zm220 118 2 5 14 18 10 14 28 38 13 18 13 17 10 14 14 19 13 18 15 20 13 18 12 16 13 18 12 16 28 38 13 18 15 20 13 18 70 95 12 17-2 5-9 12-13 17-20 26-13 17-20 26-26 34-14 18-13 17-14 18-12 16-14 18-9 12-14 18-10 13-16 21-4 6h240l9-10 10-14 12-15 29-38 14-18 12-16 14-18 15-20 12-15 13-17 12-16 11-14-4-4-12-6-18-11-17-12-13-10-10-9-8-7-6-5-7-8-12-13-13-17-16-24-13-24-11-25-11-34-6-28-3-20-2-26v-29l2-28 4-26 5-23-1-6-10-14-84-114-11-15zm725 0-34 2-28 4-27 6-25 8-22 9-22 11-16 10-14 10-13 11-23 23-15 20-12 21-7 14-8 22-6 25-3 20-1 16v15l2 23 5 25 5 18 11 25 11 19 12 16 12 14 9 9 11 9 13 10 22 13 16 8 20 8 27 8 20 4 23 3 13 1 125 1 16 3 14 7 12 11 8 14 4 13v21l-4 13-7 12-10 10-14 8-12 4-7 1h-123l-34-2-15-1-12 15-8 11-14 18-20 26-16 21-10 13-9 12-11 14-10 13-15 20-8 10v1h290l27-3 24-4 30-8 20-7 23-10 22-12 16-11 13-10 12-11 14-14 11-14 9-13 10-17 10-22 7-22 4-21 3-25v-31l-4-28-5-21-7-19-9-19-11-18-10-13-11-12-14-14-17-13-14-9-18-10-23-10-33-10-19-4-26-3-14-1-121-1-14-3-16-8-11-9-7-11-5-11-2-9v-15l4-15 5-10 7-9 8-7 16-8 9-2 117-1 5-3 10-13 12-16 11-14 12-16 11-14 7-9 13-17 9-12 11-14 14-18 12-16 6-9z" fill="#FFFFFF"/>
</svg>
